<svg xmlns="http://www.w3.org/2000/svg" viewBox="0 0 512 512">
  <defs>
    <linearGradient id="bg" x1="0%" y1="0%" x2="100%" y2="100%">
      <stop offset="0%" style="stop-color:#2563eb"/>
      <stop offset="100%" style="stop-color:#1d4ed8"/>
    </linearGradient>
  </defs>
  <rect width="512" height="512" rx="128" fill="url(#bg)"/>
  <path d="M128 96h128v320H128c-17.7 0-32-14.3-32-32V128c0-17.7 14.3-32 32-32z" fill="white" opacity="0.9"/>
  <path d="M256 64v384h128c17.7 0 32-14.3 32-32V96c0-17.7-14.3-32-32-32H256z" fill="white" opacity="0.7"/>
  <rect x="160" y="144" width="64" height="8" rx="4" fill="#2563eb" opacity="0.3"/>
  <rect x="160" y="176" width="48" height="8" rx="4" fill="#2563eb" opacity="0.3"/>
  <rect x="160" y="208" width="56" height="8" rx="4" fill="#2563eb" opacity="0.3"/>
  <rect x="288" y="144" width="64" height="8" rx="4" fill="#1d4ed8" opacity="0.3"/>
  <rect x="288" y="176" width="48" height="8" rx="4" fill="#1d4ed8" opacity="0.3"/>
  <rect x="288" y="208" width="56" height="8" rx="4" fill="#1d4ed8" opacity="0.3"/>
</svg>
